<svg xmlns="http://www.w3.org/2000/svg" width="800" height="600" viewBox="0 0 800 600">
  <!-- Background and Grid -->
  <rect width="800" height="600" fill="#f8fcff"/>
  <defs>
    <pattern id="grid" width="40" height="40" patternUnits="userSpaceOnUse">
      <path d="M 40 0 L 0 0 0 40" fill="none" stroke="#e8f4f8" stroke-width="1"/>
    </pattern>
  </defs>
  <rect width="800" height="600" fill="url(#grid)"/>

  <!-- Title -->
  <text x="400" y="50" font-size="32" fill="#1976D2" text-anchor="middle" font-family="Arial, sans-serif" font-weight="bold">Brightness Control - Different Resistors</text>

  <!-- Battery (left) -->
  <g transform="translate(150, 300)">
    <rect x="-30" y="-50" width="60" height="100" fill="#4CAF50" stroke="#2E7D32" stroke-width="3" rx="8"/>
    <rect x="-10" y="-60" width="20" height="10" fill="#FF5252" stroke="#C62828" stroke-width="2" rx="2"/>
    <rect x="-15" y="50" width="30" height="5" fill="#2196F3" stroke="#1565C0" stroke-width="2"/>
    <text x="0" y="-20" font-size="28" fill="#fff" text-anchor="middle" font-weight="bold">+</text>
    <text x="0" y="30" font-size="28" fill="#fff" text-anchor="middle" font-weight="bold">-</text>
    <circle cx="0" cy="-60" r="6" fill="#FF5252"/>
    <circle cx="0" cy="55" r="6" fill="#2196F3"/>
    <text x="0" y="-85" font-size="16" fill="#333" text-anchor="middle" font-weight="bold">Battery</text>
  </g>

  <!-- Resistor 1K Ohm (center top) -->
  <g transform="translate(400, 200)">
    <rect x="-45" y="-12" width="90" height="24" fill="#F5DEB3" stroke="#8B4513" stroke-width="3" rx="4"/>
    <!-- Color bands: Brown-Black-Red = 1K Ohm -->
    <rect x="-30" y="-12" width="10" height="24" fill="#8B4513"/>
    <rect x="-10" y="-12" width="10" height="24" fill="#000000"/>
    <rect x="10" y="-12" width="10" height="24" fill="#FF0000"/>
    <line x1="-60" y1="0" x2="-45" y2="0" stroke="#888" stroke-width="4" stroke-linecap="round"/>
    <line x1="45" y1="0" x2="60" y2="0" stroke="#888" stroke-width="4" stroke-linecap="round"/>
    <circle cx="-60" cy="0" r="5" fill="#888"/>
    <circle cx="60" cy="0" r="5" fill="#888"/>
    <text x="0" y="-30" font-size="16" fill="#333" text-anchor="middle" font-weight="bold">Resistor</text>
    <text x="0" y="-48" font-size="14" fill="#666" text-anchor="middle">1KΩ (Higher Resistance)</text>
  </g>

  <!-- LED (right, dimmer than usual) -->
  <g transform="translate(650, 320)">
    <!-- Dimmer LED -->
    <ellipse cx="0" cy="-10" rx="32" ry="42" fill="#FFEB3B" stroke="#FDD835" stroke-width="3" opacity="0.9"/>
    <circle cx="0" cy="0" r="18" fill="#FFEB3B" opacity="0.5"/>
    <ellipse cx="-7" cy="-13" rx="11" ry="16" fill="#FFFFFF" opacity="0.4"/>
    <circle cx="0" cy="0" r="38" fill="#FFEB3B" opacity="0.2"/>
    <rect x="-26" y="27" width="52" height="11" fill="#757575" rx="3"/>
    <line x1="18" y1="38" x2="18" y2="80" stroke="#888" stroke-width="5" stroke-linecap="round"/>
    <circle cx="18" cy="80" r="6" fill="#FF5252" stroke="#C62828" stroke-width="2"/>
    <line x1="-18" y1="38" x2="-18" y2="65" stroke="#888" stroke-width="5" stroke-linecap="round"/>
    <circle cx="-18" cy="65" r="6" fill="#2196F3" stroke="#1565C0" stroke-width="2"/>
    <text x="0" y="-70" font-size="15" fill="#333" text-anchor="middle" font-weight="bold">LED (Dimmer)</text>
  </g>

  <!-- Wire: Battery+ to Resistor (red) -->
  <path d="M 150 240 C 220 240, 280 220, 340 200" fill="none" stroke="#F44336" stroke-width="5" stroke-linecap="round"/>
  <circle cx="150" cy="240" r="7" fill="#F44336"/>
  <circle cx="340" cy="200" r="7" fill="#F44336"/>

  <!-- Wire: Resistor to LED+ (red) -->
  <path d="M 460 200 C 520 200, 620 240, 668 400" fill="none" stroke="#F44336" stroke-width="5" stroke-linecap="round"/>
  <circle cx="460" cy="200" r="7" fill="#F44336"/>
  <circle cx="668" cy="400" r="7" fill="#F44336"/>

  <!-- Wire: LED- to Battery- (blue) -->
  <path d="M 632 385 C 500 385, 280 385, 200 370 C 170 365, 150 360, 150 355" fill="none" stroke="#2196F3" stroke-width="5" stroke-linecap="round"/>
  <circle cx="632" cy="385" r="7" fill="#2196F3"/>
  <circle cx="150" cy="355" r="7" fill="#2196F3"/>

  <!-- Info box -->
  <rect x="150" y="480" width="500" height="80" fill="#FFF9C4" stroke="#F57F17" stroke-width="3" rx="10"/>
  <text x="400" y="510" font-size="16" fill="#F57F17" text-anchor="middle" font-weight="bold">💡 How It Works:</text>
  <text x="400" y="535" font-size="14" fill="#333" text-anchor="middle">Higher resistance (1KΩ) = Less current = Dimmer LED</text>
  <text x="400" y="555" font-size="14" fill="#333" text-anchor="middle">Lower resistance (330Ω) = More current = Brighter LED</text>
</svg>
