<svg xmlns="http://www.w3.org/2000/svg" viewBox="0 0 200 200">
  <rect x="30" y="40" width="140" height="120" rx="3" fill="#f8f9fa" stroke="#2c3e50" stroke-width="2"/>
  <g id="holes">
    <circle cx="50" cy="60" r="3" fill="#34495e"/>
    <circle cx="70" cy="60" r="3" fill="#34495e"/>
    <circle cx="90" cy="60" r="3" fill="#34495e"/>
    <circle cx="110" cy="60" r="3" fill="#34495e"/>
    <circle cx="130" cy="60" r="3" fill="#34495e"/>
    <circle cx="150" cy="60" r="3" fill="#34495e"/>
    <circle cx="50" cy="80" r="3" fill="#34495e"/>
    <circle cx="70" cy="80" r="3" fill="#34495e"/>
    <circle cx="90" cy="80" r="3" fill="#34495e"/>
    <circle cx="110" cy="80" r="3" fill="#34495e"/>
    <circle cx="130" cy="80" r="3" fill="#34495e"/>
    <circle cx="150" cy="80" r="3" fill="#34495e"/>
    <circle cx="50" cy="120" r="3" fill="#34495e"/>
    <circle cx="70" cy="120" r="3" fill="#34495e"/>
    <circle cx="90" cy="120" r="3" fill="#34495e"/>
    <circle cx="110" cy="120" r="3" fill="#34495e"/>
    <circle cx="130" cy="120" r="3" fill="#34495e"/>
    <circle cx="150" cy="120" r="3" fill="#34495e"/>
    <circle cx="50" cy="140" r="3" fill="#34495e"/>
    <circle cx="70" cy="140" r="3" fill="#34495e"/>
    <circle cx="90" cy="140" r="3" fill="#34495e"/>
    <circle cx="110" cy="140" r="3" fill="#34495e"/>
    <circle cx="130" cy="140" r="3" fill="#34495e"/>
    <circle cx="150" cy="140" r="3" fill="#34495e"/>
  </g>
  <line x1="30" y1="105" x2="170" y2="105" stroke="#e74c3c" stroke-width="2"/>
  <text x="100" y="190" font-family="Arial" font-size="14" fill="#2c3e50" text-anchor="middle">Breadboard</text>
</svg>
